<?xml version="1.0" encoding="UTF-8" standalone="no"?>
<!DOCTYPE svg PUBLIC "-//W3C//DTD SVG 1.1//EN" "http://www.w3.org/Graphics/SVG/1.1/DTD/svg11.dtd">
<svg width="100%" height="100%" viewBox="0 0 500 500" version="1.1" xmlns="http://www.w3.org/2000/svg" xmlns:xlink="http://www.w3.org/1999/xlink" xml:space="preserve" xmlns:serif="http://www.serif.com/" style="fill-rule:evenodd;clip-rule:evenodd;stroke-linejoin:round;stroke-miterlimit:2;">
    <g transform="matrix(1,0,0,1,-4121.66,-2125.75)">
        <g id="Layer-17" serif:id="Layer 17">
        </g>
        <g id="favicon_rounded" transform="matrix(1.16084,0,0,0.875142,-1406.27,359.702)">
            <rect x="4762.01" y="2018.01" width="430.722" height="571.336" style="fill:none;"/>
            <clipPath id="_clip1">
                <rect x="4762.01" y="2018.01" width="430.722" height="571.336"/>
            </clipPath>
            <g clip-path="url(#_clip1)">
                <g transform="matrix(0.861445,0,0,1.14267,1493.86,312.001)">
                    <g transform="matrix(0.913726,0,0,0.913726,2896.48,-494.164)">
                        <path d="M1529.24,2260.77C1529.24,2213.32 1490.71,2174.79 1443.26,2174.79L1068.01,2174.79C1020.56,2174.79 982.03,2213.32 982.03,2260.77L982.03,2636.02C982.03,2683.48 1020.56,2722 1068.01,2722L1443.26,2722C1490.71,2722 1529.24,2683.48 1529.24,2636.02L1529.24,2260.77Z" style="fill:rgb(30,28,28);"/>
                    </g>
                    <g transform="matrix(0.907832,0,0,0.907832,2196.61,1546.8)">
                        <g id="DATA-2" serif:id="DATA 2">
                            <g transform="matrix(3.99861,0,0,3.99861,-6599.88,-1089.52)">
                                <path d="M2211.94,274.755L2168.16,274.755C2167.64,274.755 2167.21,275.179 2167.21,275.703L2167.21,290.296C2167.21,290.82 2167.64,291.245 2168.16,291.245L2196.4,291.245C2196.4,291.245 2196.4,362.313 2196.4,362.313C2196.4,362.313 2168.16,362.313 2168.16,362.313C2167.64,362.313 2167.21,362.737 2167.21,363.261L2167.21,377.854C2167.21,378.378 2167.64,378.803 2168.16,378.803L2211.94,378.803C2212.46,378.803 2212.89,378.378 2212.89,377.854L2212.89,275.703C2212.89,275.179 2212.46,274.755 2211.94,274.755Z" style="fill:rgb(222,222,222);"/>
                            </g>
                            <g transform="matrix(-3.99861,0,0,3.99861,10669.9,-1089.52)">
                                <path d="M2168.16,274.755L2211.94,274.755C2212.46,274.755 2212.89,275.179 2212.89,275.703L2212.89,377.854C2212.89,378.378 2212.46,378.803 2211.94,378.803L2168.16,378.803C2167.64,378.803 2167.21,378.378 2167.21,377.854L2167.21,363.261C2167.21,362.737 2167.64,362.313 2168.16,362.313L2196.4,362.313C2196.4,362.313 2196.4,291.245 2196.4,291.245C2196.4,291.245 2168.16,291.245 2168.16,291.245C2167.64,291.245 2167.21,290.82 2167.21,290.296L2167.21,275.703C2167.21,275.179 2167.64,274.755 2168.16,274.755Z" style="fill:rgb(222,222,222);"/>
                            </g>
                        </g>
                    </g>
                </g>
            </g>
        </g>
    </g>
</svg>
