<svg clip-rule="evenodd" fill-rule="evenodd" stroke-linejoin="round" stroke-miterlimit="2" viewBox="0 0 500 500" xmlns="http://www.w3.org/2000/svg"><g transform="matrix(1 0 0 1.0018 -4296.2946 -1496.6231)"><path d="m4296.29 1493.92h500v499.099h-500z" fill="none"/><path d="m982.03 2174.79h547.21v547.21h-547.21z" fill="#1e1c1c" transform="matrix(.913726 0 0 .91208037947 3398.98 -489.659680636)"/><g fill="#dedede"><path d="m2211.94 274.755h-43.78c-.52 0-.95.424-.95.948v14.593c0 .524.43.949.95.949h28.24v71.068h-28.24c-.52 0-.95.424-.95.948v14.593c0 .524.43.949.95.949h43.78c.52 0 .95-.425.95-.949v-102.151c0-.524-.43-.948-.95-.948z" transform="matrix(3.63006611352 0 0 3.62352836445 -3292.47226016 560.30879367827)"/><path d="m2168.16 274.755h43.78c.52 0 .95.424.95.948v102.151c0 .524-.43.949-.95.949h-43.78c-.52 0-.95-.425-.95-.949v-14.593c0-.524.43-.948.95-.948h28.24v-71.068h-28.24c-.52 0-.95-.425-.95-.949v-14.593c0-.524.43-.948.95-.948z" transform="matrix(-3.63006611352 0 0 3.62352836445 12385.5866568 560.30879367827)"/></g></g></svg>